<?xml version="1.0" encoding="utf-8"?>
<!-- Generator: Adobe Illustrator 16.0.0, SVG Export Plug-In . SVG Version: 6.00 Build 0)  -->
<!DOCTYPE svg PUBLIC "-//W3C//DTD SVG 1.1//EN" "http://www.w3.org/Graphics/SVG/1.1/DTD/svg11.dtd">
<svg version="1.1" xmlns="http://www.w3.org/2000/svg" xmlns:xlink="http://www.w3.org/1999/xlink" width="800" height="510" viewBox="100 100 700 450">
  <defs>
    <circle id="hole" cx="0" cy="0" r="13" fill="#FFFFFF" stroke="#FFDC69" stroke-width="4" />
    <g id="pin">
      <rect x="0" y="0" width="15" height="15" fill="#272727" stroke="#000000" stroke-width="0.1" />
      <rect x="2.5" y="2.5" width="10" height="10" fill="#333333" />
      <rect x="4" y="4" width="7" height="7" fill="#555555" />
      <polygon points="2.5,2.5 12.5,2.5 2.5,12.5" fill="#000000" style="fill-opacity:0.35" />
      <rect x="5" y="5" width="5" height="5" fill="#222222" />
    </g>
    <polygon id="port_latch" points="0,0 40,5 40,25 0,30 0,27.5 36,22 36,8 0,2.5" fill="#000000" style="fill-opacity:0.75" />
    <linearGradient id="silver_grad" x1="0" x2="0" y1="0" y2="1.41" gradientTransform="rotate(-45)">
      <stop offset="0%" stop-color="#919191"/>
      <stop offset="25%" stop-color="#7E7E7E"/>
      <stop offset="50%" stop-color="#E6E6E6"/>
      <stop offset="75%" stop-color="#7E7E7E"/>
      <stop offset="100%" stop-color="#919191"/>
    </linearGradient>
    <linearGradient id="black_grad" x1="0" x2="0" y1="0" y2="1">
      <stop offset="0%" stop-color="#202020" />  
      <stop offset="50%" stop-color="#9F9F9F" />
      <stop offset="100%" stop-color="#202020" />
    </linearGradient>
  </defs>
  <g id="bodyGuard">
    <rect fill="#1A1A1A" x="115" y="100" width="410" height="350" rx="35" />
    <rect fill="#1A1A1A" x="365" y="100" width="300" height="350" rx="100" />
  </g>
  <g>
    <use x="220" y="125" xlink:href="#hole" />
    <use x="220" y="425" xlink:href="#hole" />
    <use x="620" y="145" xlink:href="#hole" />
    <use x="620" y="405" xlink:href="#hole" />
  </g>
  <rect x="100" y="200" width="145" height="105" rx="2" fill="url(#silver_grad)" />
  <g>
    <rect x="100" y="345" width="20" height="60" fill="#333333" />
    <rect x="104" y="345" width="4" height="60" fill="#000000" />
    <rect x="104" y="355" width="4" height="40" fill="#1A1A1A" />
    <rect x="112" y="345" width="84" height="60" fill="url(#black_grad)" />
  </g>
  <g>
    <rect x="575" y="285" width="90" height="80" rx="1" fill="url(#silver_grad)" />
    <use xlink:href="#port_latch" transform="translate(628 295), scale(0.7 0.8)" />
    <use xlink:href="#port_latch" transform="translate(628 330), scale(0.7 0.8)" />
  </g>
  <g>
    <use x="247" y="110" xlink:href="#pin" />
    <use x="262" y="110" xlink:href="#pin" />
    <use x="277" y="110" xlink:href="#pin" />
    <use x="292" y="110" xlink:href="#pin" />
    <use x="307" y="110" xlink:href="#pin" />
    <use x="322" y="110" xlink:href="#pin" />
    <use x="337" y="110" xlink:href="#pin" />
    <use x="352" y="110" xlink:href="#pin" />
    <use x="367" y="110" xlink:href="#pin" />
    <use x="382" y="110" xlink:href="#pin" />
    <use x="397" y="110" xlink:href="#pin" />
    <use x="412" y="110" xlink:href="#pin" />
    <use x="427" y="110" xlink:href="#pin" />
    <use x="442" y="110" xlink:href="#pin" />
    <use x="457" y="110" xlink:href="#pin" />
    <use x="472" y="110" xlink:href="#pin" />
    <use x="487" y="110" xlink:href="#pin" />
    <use x="502" y="110" xlink:href="#pin" />
    <use x="517" y="110" xlink:href="#pin" />
    <use x="532" y="110" xlink:href="#pin" />
    <use x="547" y="110" xlink:href="#pin" />
    <use x="562" y="110" xlink:href="#pin" />
    <use x="577" y="110" xlink:href="#pin" />
    <use x="247" y="125" xlink:href="#pin" />
    <use x="262" y="125" xlink:href="#pin" />
    <use x="277" y="125" xlink:href="#pin" />
    <use x="292" y="125" xlink:href="#pin" />
    <use x="307" y="125" xlink:href="#pin" />
    <use x="322" y="125" xlink:href="#pin" />
    <use x="337" y="125" xlink:href="#pin" />
    <use x="352" y="125" xlink:href="#pin" />
    <use x="367" y="125" xlink:href="#pin" />
    <use x="382" y="125" xlink:href="#pin" />
    <use x="397" y="125" xlink:href="#pin" />
    <use x="412" y="125" xlink:href="#pin" />
    <use x="427" y="125" xlink:href="#pin" />
    <use x="442" y="125" xlink:href="#pin" />
    <use x="457" y="125" xlink:href="#pin" />
    <use x="472" y="125" xlink:href="#pin" />
    <use x="487" y="125" xlink:href="#pin" />
    <use x="502" y="125" xlink:href="#pin" />
    <use x="517" y="125" xlink:href="#pin" />
    <use x="532" y="125" xlink:href="#pin" />
    <use x="547" y="125" xlink:href="#pin" />
    <use x="562" y="125" xlink:href="#pin" />
    <use x="577" y="125" xlink:href="#pin" />
    <use x="247" y="410" xlink:href="#pin" />
    <use x="262" y="410" xlink:href="#pin" />
    <use x="277" y="410" xlink:href="#pin" />
    <use x="292" y="410" xlink:href="#pin" />
    <use x="307" y="410" xlink:href="#pin" />
    <use x="322" y="410" xlink:href="#pin" />
    <use x="337" y="410" xlink:href="#pin" />
    <use x="352" y="410" xlink:href="#pin" />
    <use x="367" y="410" xlink:href="#pin" />
    <use x="382" y="410" xlink:href="#pin" />
    <use x="397" y="410" xlink:href="#pin" />
    <use x="412" y="410" xlink:href="#pin" />
    <use x="427" y="410" xlink:href="#pin" />
    <use x="442" y="410" xlink:href="#pin" />
    <use x="457" y="410" xlink:href="#pin" />
    <use x="472" y="410" xlink:href="#pin" />
    <use x="487" y="410" xlink:href="#pin" />
    <use x="502" y="410" xlink:href="#pin" />
    <use x="517" y="410" xlink:href="#pin" />
    <use x="532" y="410" xlink:href="#pin" />
    <use x="547" y="410" xlink:href="#pin" />
    <use x="562" y="410" xlink:href="#pin" />
    <use x="577" y="410" xlink:href="#pin" />
    <use x="247" y="425" xlink:href="#pin" />
    <use x="262" y="425" xlink:href="#pin" />
    <use x="277" y="425" xlink:href="#pin" />
    <use x="292" y="425" xlink:href="#pin" />
    <use x="307" y="425" xlink:href="#pin" />
    <use x="322" y="425" xlink:href="#pin" />
    <use x="337" y="425" xlink:href="#pin" />
    <use x="352" y="425" xlink:href="#pin" />
    <use x="367" y="425" xlink:href="#pin" />
    <use x="382" y="425" xlink:href="#pin" />
    <use x="397" y="425" xlink:href="#pin" />
    <use x="412" y="425" xlink:href="#pin" />
    <use x="427" y="425" xlink:href="#pin" />
    <use x="442" y="425" xlink:href="#pin" />
    <use x="457" y="425" xlink:href="#pin" />
    <use x="472" y="425" xlink:href="#pin" />
    <use x="487" y="425" xlink:href="#pin" />
    <use x="502" y="425" xlink:href="#pin" />
    <use x="517" y="425" xlink:href="#pin" />
    <use x="532" y="425" xlink:href="#pin" />
    <use x="547" y="425" xlink:href="#pin" />
    <use x="562" y="425" xlink:href="#pin" />
    <use x="577" y="425" xlink:href="#pin" />
  </g>
  <g>
    <text x="240" y="119" font-size="60%" fill="#FFFFFF">2</text>
    <text x="240" y="138" font-size="60%" fill="#FFFFFF">1</text>
    <text x="594" y="119" font-size="60%" fill="#FFFFFF">46</text>
    <text x="594" y="138" font-size="60%" fill="#FFFFFF">45</text>
    <text x="240" y="419" font-size="60%" fill="#FFFFFF">2</text>
    <text x="240" y="438" font-size="60%" fill="#FFFFFF">1</text>
    <text x="594" y="419" font-size="60%" fill="#FFFFFF">46</text>
    <text x="594" y="438" font-size="60%" fill="#FFFFFF">45</text>
	<text x="248" y="155" font-size="120%" fill="#333333">P8</text>
    <text x="248" y="409" font-size="120%" fill="#333333">P9</text>
  </g>
</svg>